:FULLY-SPECIFIED
:FORCE-ALL-JOINTS-BE-3DOF
:DEGREES
307
root 10.0162 16.7529 6.1858 7.37394 7.44989 5.10003
lfemur 13.7066 2.92769 -28.7047
ltibia 6.36111e-15 0 0
lfoot -14.6643 0.872805 0
ltoes 1.19895 0 0
rfemur -44.1939 18.1536 -0.849533
rtibia 25.2359 0 0
rfoot -32.8452 -19.8742 0
rtoes -21.3767 0 0
lowerback -8.02387 -4.9625 -6.90312
upperback -0.755937 -6.07315 1.90723
thorax 4.62974 -3.16703 5.0961
lowerneck -18.8571 -4.68291 -12.8086
upperneck 21.7683 -5.85366 12.2363
head 10.8954 -2.32653 5.74676
lclavicle -4.66647e-14 -3.18055e-15 0
lhumerus -11.9981 -35.5609 90.3238
lradius 37.2263 0 0
lwrist 17.6575 0 0
lhand -11.3006 -20.8009 0
lfingers 7.12502 0 0
lthumb 14.7309 8.6557 0
rclavicle -4.66647e-14 -3.18055e-15 0
rhumerus -49.7118 6.05712 -82.7475
rradius 34.614 0 0
rwrist -18.9952 0 0
rhand -28.2791 -27.186 0
rfingers 7.12502 0 0
rthumb -1.65544 -57.1593 0
308
root 10.0047 16.7292 6.35042 7.4277 7.58685 5.03601
lfemur 14.2474 3.03567 -28.3698
ltibia 1.32523e-14 0 0
lfoot -14.5572 0.640752 0
ltoes 0.007715 0 0
rfemur -43.9703 16.7824 0.206496
rtibia 25.1264 0 0
rfoot -31.8777 -19.1654 0
rtoes -20.7307 0 0
lowerback -8.10178 -4.95637 -6.86388
upperback -0.765539 -6.06334 1.91035
thorax 4.65803 -3.16173 5.07334
lowerneck -18.9014 -4.73471 -12.741
upperneck 21.7703 -5.94267 12.2328
head 10.9157 -2.36029 5.71949
lclavicle -4.36291e-14 1.98786e-15 0
lhumerus -12.4108 -36.1706 90.7235
lradius 37.7028 0 0
lwrist 17.252 0 0
lhand -10.9382 -21.048 0
lfingers 7.12502 0 0
lthumb 15.0799 8.38101 0
rclavicle -4.36291e-14 1.98786e-15 0
rhumerus -49.7255 5.96616 -82.7745
rradius 34.1759 0 0
rwrist -18.7614 0 0
rhand -28.3001 -26.3433 0
rfingers 7.12502 0 0
rthumb -1.67573 -56.3165 0
309
root 9.99317 16.7056 6.51504 7.48146 7.7238 4.97199
lfemur 14.7883 3.14365 -28.0349
ltibia 2.01435e-14 0 0
lfoot -14.45 0.408699 0
ltoes -1.18352 0 0
rfemur -43.7466 15.4113 1.26252
rtibia 25.0168 0 0
rfoot -30.9102 -18.4566 0
rtoes -20.0846 0 0
lowerback -8.1797 -4.95024 -6.82464
upperback -0.77514 -6.05353 1.91347
thorax 4.68633 -3.15643 5.05057
lowerneck -18.9456 -4.78652 -12.6733
upperneck 21.7724 -6.03169 12.2292
head 10.9359 -2.39405 5.69223
lclavicle -4.05935e-14 7.15627e-15 0
lhumerus -12.8235 -36.7803 91.1233
lradius 38.1793 0 0
lwrist 16.8465 0 0
lhand -10.5758 -21.2951 0
lfingers 7.12502 0 0
lthumb 15.4289 8.10633 0
rclavicle -4.05935e-14 7.15627e-15 0
rhumerus -49.7393 5.87521 -82.8015
rradius 33.7379 0 0
rwrist -18.5275 0 0
rhand -28.3211 -25.5007 0
rfingers 7.12502 0 0
rthumb -1.69602 -55.4737 0
310
root 9.98165 16.6819 6.67967 7.53522 7.86076 4.90797
lfemur 15.3291 3.25163 -27.7
ltibia 2.70347e-14 0 0
lfoot -14.3429 0.176647 0
ltoes -2.37475 0 0
rfemur -43.523 14.0401 2.31855
rtibia 24.9073 0 0
rfoot -29.9427 -17.7478 0
rtoes -19.4385 0 0
lowerback -8.25761 -4.94411 -6.78541
upperback -0.784742 -6.04372 1.91659
thorax 4.71462 -3.15113 5.02781
lowerneck -18.9899 -4.83832 -12.6057
upperneck 21.7744 -6.1207 12.2257
head 10.9562 -2.42781 5.66496
lclavicle -3.75579e-14 1.23247e-14 0
lhumerus -13.2363 -37.3899 91.523
lradius 38.6559 0 0
lwrist 16.441 0 0
lhand -10.2134 -21.5422 0
lfingers 7.12502 0 0
lthumb 15.778 7.83164 0
rclavicle -3.75579e-14 1.23247e-14 0
rhumerus -49.7531 5.78425 -82.8286
rradius 33.2998 0 0
rwrist -18.2936 0 0
rhand -28.3421 -24.658 0
rfingers 7.12502 0 0
rthumb -1.71632 -54.6309 0
311
root 9.97014 16.6582 6.84429 7.58898 7.99771 4.84395
lfemur 15.8699 3.35961 -27.365
ltibia 3.39259e-14 0 0
lfoot -14.2358 -0.0554063 0
ltoes -3.56599 0 0
rfemur -43.2994 12.6689 3.37458
rtibia 24.7978 0 0
rfoot -28.9751 -17.039 0
rtoes -18.7925 0 0
lowerback -8.33552 -4.93798 -6.74617
upperback -0.794344 -6.03391 1.91971
thorax 4.74292 -3.14583 5.00505
lowerneck -19.0342 -4.89013 -12.5381
upperneck 21.7764 -6.20971 12.2222
head 10.9764 -2.46156 5.63769
lclavicle -3.45223e-14 1.74931e-14 0
lhumerus -13.649 -37.9996 91.9227
lradius 39.1324 0 0
lwrist 16.0354 0 0
lhand -9.85094 -21.7893 0
lfingers 7.12502 0 0
lthumb 16.127 7.55695 0
rclavicle -3.45223e-14 1.74931e-14 0
rhumerus -49.7668 5.69329 -82.8556
rradius 32.8617 0 0
rwrist -18.0598 0 0
rhand -28.3631 -23.8153 0
rfingers 7.12502 0 0
rthumb -1.73661 -53.788 0
312
root 9.95862 16.6346 7.00891 7.64274 8.13467 4.77993
lfemur 16.4108 3.46759 -27.0301
ltibia 4.08171e-14 0 0
lfoot -14.1286 -0.287459 0
ltoes -4.75723 0 0
rfemur -43.0757 11.2978 4.43061
rtibia 24.6882 0 0
rfoot -28.0076 -16.3302 0
rtoes -18.1464 0 0
lowerback -8.41344 -4.93185 -6.70693
upperback -0.803945 -6.0241 1.92283
thorax 4.77121 -3.14053 4.98228
lowerneck -19.0784 -4.94193 -12.4704
upperneck 21.7785 -6.29873 12.2186
head 10.9966 -2.49532 5.61043
lclavicle -3.14867e-14 2.26615e-14 0
lhumerus -14.0617 -38.6093 92.3225
lradius 39.6089 0 0
lwrist 15.6299 0 0
lhand -9.48853 -22.0364 0
lfingers 7.12502 0 0
lthumb 16.476 7.28227 0
rclavicle -3.14867e-14 2.26615e-14 0
rhumerus -49.7805 5.60234 -82.8826
rradius 32.4237 0 0
rwrist -17.8259 0 0
rhand -28.3841 -22.9727 0
rfingers 7.12502 0 0
rthumb -1.7569 -52.9452 0
313
root 9.94711 16.6109 7.17353 7.6965 8.27162 4.71591
lfemur 16.9516 3.57557 -26.6952
ltibia 4.77083e-14 0 0
lfoot -14.0215 -0.519512 0
ltoes -5.94846 0 0
rfemur -42.8521 9.92662 5.48664
rtibia 24.5787 0 0
rfoot -27.0401 -15.6214 0
rtoes -17.5004 0 0
lowerback -8.49135 -4.92572 -6.66769
upperback -0.813547 -6.01429 1.92595
thorax 4.79951 -3.13523 4.95952
lowerneck -19.1227 -4.99374 -12.4028
upperneck 21.7805 -6.38774 12.2151
head 11.0169 -2.52908 5.58316
lclavicle -2.84511e-14 2.78299e-14 0
lhumerus -14.4744 -39.219 92.7222
lradius 40.0854 0 0
lwrist 15.2244 0 0
lhand -9.12611 -22.2835 0
lfingers 7.12502 0 0
lthumb 16.825 7.00758 0
rclavicle -2.84511e-14 2.78299e-14 0
rhumerus -49.7943 5.51138 -82.9096
rradius 31.9856 0 0
rwrist -17.5921 0 0
rhand -28.4051 -22.13 0
rfingers 7.12502 0 0
rthumb -1.77719 -52.1024 0
314
root 9.92778 16.582 7.35156 7.72328 8.42188 4.88259
lfemur 17.5809 3.61274 -26.488
ltibia 4.77083e-14 0 0
lfoot -13.5672 -1.05817 0
ltoes -5.63623 0 0
rfemur -42.8659 8.7751 6.22502
rtibia 25.4621 0 0
rfoot -25.7306 -14.1733 0
rtoes -19.6535 0 0
lowerback -8.45781 -4.93558 -6.84206
upperback -0.853351 -6.01082 1.84939
thorax 4.7478 -3.13304 4.98107
lowerneck -19.187 -5.0513 -12.4266
upperneck 21.838 -6.46528 12.2336
head 11.0641 -2.56218 5.58386
lclavicle -1.62424e-14 2.54445e-14 0
lhumerus -15.1817 -39.4183 93.2667
lradius 40.3981 0 0
lwrist 14.7508 0 0
lhand -8.47941 -22.4857 0
lfingers 7.12502 0 0
lthumb 17.447 6.74547 0
rclavicle -1.62424e-14 2.54445e-14 0
rhumerus -49.8869 5.43088 -82.9254
rradius 31.733 0 0
rwrist -17.1974 0 0
rhand -28.4329 -22.4655 0
rfingers 7.12502 0 0
rthumb -1.80407 -52.4377 0
315
root 9.90845 16.553 7.52959 7.75007 8.57214 5.04928
lfemur 18.2101 3.64991 -26.2807
ltibia 4.77083e-14 0 0
lfoot -13.1129 -1.59682 0
ltoes -5.32401 0 0
rfemur -42.8797 7.62357 6.96339
rtibia 26.3455 0 0
rfoot -24.4212 -12.7253 0
rtoes -21.8066 0 0
lowerback -8.42426 -4.94544 -7.01643
upperback -0.893155 -6.00735 1.77283
thorax 4.6961 -3.13085 5.00261
lowerneck -19.2514 -5.10886 -12.4504
upperneck 21.8954 -6.54282 12.2522
head 11.1114 -2.59529 5.58456
lclavicle -4.0337e-15 2.30591e-14 0
lhumerus -15.8891 -39.6175 93.8112
lradius 40.7108 0 0
lwrist 14.2773 0 0
lhand -7.83271 -22.6879 0
lfingers 7.12502 0 0
lthumb 18.069 6.48335 0
rclavicle -4.0337e-15 2.30591e-14 0
rhumerus -49.9794 5.35038 -82.9412
rradius 31.4805 0 0
rwrist -16.8028 0 0
rhand -28.4608 -22.8011 0
rfingers 7.12502 0 0
rthumb -1.83095 -52.773 0
316
root 9.88912 16.5241 7.70762 7.77685 8.7224 5.21596
lfemur 18.8394 3.68708 -26.0735
ltibia 4.77083e-14 0 0
lfoot -12.6586 -2.13548 0
ltoes -5.01178 0 0
rfemur -42.8936 6.47204 7.70177
rtibia 27.229 0 0
rfoot -23.1117 -11.2772 0
rtoes -23.9597 0 0
lowerback -8.39072 -4.9553 -7.1908
upperback -0.932959 -6.00387 1.69627
thorax 4.64439 -3.12866 5.02416
lowerneck -19.3158 -5.16642 -12.4741
upperneck 21.9529 -6.62035 12.2707
head 11.1586 -2.62839 5.58526
lclavicle 8.175e-15 2.06737e-14 0
lhumerus -16.5964 -39.8167 94.3557
lradius 41.0235 0 0
lwrist 13.8037 0 0
lhand -7.18601 -22.8901 0
lfingers 7.12502 0 0
lthumb 18.691 6.22124 0
rclavicle 8.175e-15 2.06737e-14 0
rhumerus -50.072 5.26987 -82.957
rradius 31.2279 0 0
rwrist -16.4081 0 0
rhand -28.4886 -23.1366 0
rfingers 7.12502 0 0
rthumb -1.85783 -53.1083 0
317
root 9.86979 16.4951 7.88565 7.80363 8.87266 5.38264
lfemur 19.4687 3.72424 -25.8662
ltibia 4.77083e-14 0 0
lfoot -12.2044 -2.67413 0
ltoes -4.69955 0 0
rfemur -42.9074 5.32052 8.44015
rtibia 28.1124 0 0
rfoot -21.8022 -9.82915 0
rtoes -26.1129 0 0
lowerback -8.35718 -4.96516 -7.36517
upperback -0.972762 -6.0004 1.61972
thorax 4.59268 -3.12646 5.0457
lowerneck -19.3801 -5.22398 -12.4979
upperneck 22.0104 -6.69789 12.2893
head 11.2059 -2.66149 5.58596
lclavicle 2.03837e-14 1.82882e-14 0
lhumerus -17.3038 -40.016 94.9002
lradius 41.3362 0 0
lwrist 13.3301 0 0
lhand -6.53931 -23.0923 0
lfingers 7.12502 0 0
lthumb 19.3131 5.95913 0
rclavicle 2.03837e-14 1.82882e-14 0
rhumerus -50.1646 5.18937 -82.9727
rradius 30.9753 0 0
rwrist -16.0135 0 0
rhand -28.5164 -23.4721 0
rfingers 7.12502 0 0
rthumb -1.8847 -53.4436 0
318
root 9.85046 16.4661 8.06368 7.83042 9.02292 5.54933
lfemur 20.0979 3.76141 -25.6589
ltibia 4.77083e-14 0 0
lfoot -11.7501 -3.21279 0
ltoes -4.38733 0 0
rfemur -42.9212 4.16899 9.17852
rtibia 28.9958 0 0
rfoot -20.4928 -8.38108 0
rtoes -28.266 0 0
lowerback -8.32363 -4.97502 -7.53954
upperback -1.01257 -5.99693 1.54316
thorax 4.54098 -3.12427 5.06725
lowerneck -19.4444 -5.28154 -12.5217
upperneck 22.0678 -6.77543 12.3079
head 11.2531 -2.6946 5.58666
lclavicle 3.25924e-14 1.59028e-14 0
lhumerus -18.0111 -40.2152 95.4447
lradius 41.6489 0 0
lwrist 12.8566 0 0
lhand -5.89261 -23.2945 0
lfingers 7.12502 0 0
lthumb 19.9351 5.69701 0
rclavicle 3.25924e-14 1.59028e-14 0
rhumerus -50.2571 5.10887 -82.9885
rradius 30.7228 0 0
rwrist -15.6189 0 0
rhand -28.5443 -23.8077 0
rfingers 7.12502 0 0
rthumb -1.91158 -53.7789 0
319
root 9.83113 16.4372 8.24171 7.8572 9.17318 5.71601
lfemur 20.7272 3.79858 -25.4517
ltibia 4.77083e-14 0 0
lfoot -11.2958 -3.75144 0
ltoes -4.0751 0 0
rfemur -42.935 3.01747 9.9169
rtibia 29.8792 0 0
rfoot -19.1833 -6.93302 0
rtoes -30.4191 0 0
lowerback -8.29009 -4.98488 -7.71391
upperback -1.05237 -5.99346 1.4666
thorax 4.48927 -3.12208 5.08879
lowerneck -19.5088 -5.3391 -12.5455
upperneck 22.1253 -6.85297 12.3264
head 11.3004 -2.7277 5.58736
lclavicle 4.48011e-14 1.35174e-14 0
lhumerus -18.7185 -40.4145 95.9892
lradius 41.9616 0 0
lwrist 12.383 0 0
lhand -5.24591 -23.4967 0
lfingers 7.12502 0 0
lthumb 20.5571 5.4349 0
rclavicle 4.48011e-14 1.35174e-14 0
rhumerus -50.3497 5.02837 -83.0043
rradius 30.4702 0 0
rwrist -15.2242 0 0
rhand -28.5721 -24.1432 0
rfingers 7.12502 0 0
rthumb -1.93846 -54.1142 0
